<svg xmlns="http://www.w3.org/2000/svg" viewBox="0 0 220.9 220.9">
  <g fill="rgba(128,128,128,0.06)">
    <path
      d="M3.56 138.47c-1.97 0-3.56 1.6-3.56 3.56s1.6 3.56 3.56 3.56c39.56 0 71.74 32.18 71.74 71.74 0 1.97 1.6 3.56 3.56 3.56s3.56-1.6 3.56-3.56c0-43.49-35.38-78.87-78.87-78.87Z"/>
    <path
      d="M3.56 160.33c-1.97 0-3.56 1.6-3.56 3.56s1.6 3.56 3.56 3.56c27.5 0 49.88 22.38 49.88 49.88 0 1.97 1.6 3.56 3.56 3.56s3.56-1.6 3.56-3.56c0-31.43-25.57-57.01-57.01-57.01Z"/>
    <path
      d="M3.56 182.2c-1.97 0-3.56 1.6-3.56 3.56s1.6 3.56 3.56 3.56c15.45 0 28.02 12.57 28.02 28.02 0 1.97 1.6 3.56 3.56 3.56s3.56-1.6 3.56-3.56c0-19.38-15.77-35.14-35.14-35.14Zm0 21.86c-1.97 0-3.56 1.6-3.56 3.56s1.6 3.56 3.56 3.56c3.39 0 6.15 2.76 6.15 6.15 0 1.97 1.6 3.56 3.56 3.56s3.56-1.6 3.56-3.56c0-7.32-5.96-13.28-13.28-13.28Zm213.78-21.86c-19.38 0-35.14 15.77-35.14 35.14 0 1.97 1.6 3.56 3.56 3.56s3.56-1.6 3.56-3.56c0-15.45 12.57-28.02 28.02-28.02 1.97 0 3.56-1.6 3.56-3.56s-1.6-3.56-3.56-3.56Zm0 21.86c-7.32 0-13.28 5.96-13.28 13.28 0 1.97 1.6 3.56 3.56 3.56s3.56-1.6 3.56-3.56c0-3.39 2.76-6.15 6.15-6.15 1.97 0 3.56-1.6 3.56-3.56s-1.6-3.56-3.56-3.56ZM110.45 75.31c-19.38 0-35.14 15.77-35.14 35.14s15.77 35.14 35.14 35.14 35.14-15.77 35.14-35.14-15.77-35.14-35.14-35.14Zm0 63.16c-15.45 0-28.02-12.57-28.02-28.02S95 82.43 110.45 82.43s28.02 12.57 28.02 28.02-12.57 28.02-28.02 28.02Z"/>
    <path
      d="M110.45 97.17c-7.32 0-13.28 5.96-13.28 13.28s5.96 13.28 13.28 13.28 13.28-5.96 13.28-13.28-5.96-13.28-13.28-13.28Zm0 19.43c-3.39 0-6.15-2.76-6.15-6.15s2.76-6.15 6.15-6.15 6.15 2.76 6.15 6.15-2.76 6.15-6.15 6.15Z"/>
    <path
      d="M220.9 100.73c0-1.97-1.6-3.56-3.56-3.56-3.28 0-6.6-.17-9.88-.52-3.78-.4-7.52-1.02-11.21-1.87-3.69-.85-7.32-1.92-10.88-3.21a95.261 95.261 0 0 1-16.27-7.74 93.717 93.717 0 0 1-8.43-5.7 86.046 86.046 0 0 1-3.96-3.18c-.64-.55-1.28-1.1-1.91-1.67-11.32-10.16-20.12-23.05-25.46-37.74a93.775 93.775 0 0 1-5.09-22.09 96.31 96.31 0 0 1-.52-9.88c0-1.97-1.6-3.56-3.56-3.56s-3.56 1.6-3.56 3.56c0 2.11.08 4.24.21 6.36-2.13-.13-4.25-.21-6.36-.21s-4.24.08-6.36.21c.13-2.13.21-4.25.21-6.36 0-1.97-1.6-3.56-3.56-3.56s-3.56 1.6-3.56 3.56c0 2.34-.09 4.7-.27 7.06h-.05c-1.17.16-2.33.34-3.49.54-.34.06-.68.12-1.02.19-.83.15-1.66.31-2.49.48-.4.08-.79.17-1.18.25-.82.18-1.63.37-2.44.57-.34.09-.69.17-1.03.25-1.14.29-2.27.6-3.39.93-.01 0-.03 0-.04.01.07-.57.13-1.15.2-1.72.02-.19.05-.38.06-.56.12-1.19.21-2.37.28-3.57.01-.27.03-.53.04-.8.06-1.22.09-2.44.09-3.66 0-1.97-1.6-3.56-3.56-3.56s-3.56 1.6-3.56 3.56c0 1.17-.03 2.34-.09 3.5-.02.38-.05.77-.08 1.15-.05.78-.11 1.57-.18 2.35-.04.45-.1.9-.15 1.35-.08.72-.17 1.43-.28 2.14-.07.47-.14.94-.22 1.4l-.18 1.01c-.12.05-.24.1-.36.14-.35.14-.69.28-1.04.42-.48.19-.96.39-1.44.59-.36.15-.71.3-1.07.46-.46.2-.92.4-1.37.61-.36.16-.72.33-1.08.5-.45.21-.89.42-1.33.64-.36.17-.71.35-1.07.52-.45.22-.89.45-1.33.68-.34.18-.69.36-1.03.54-.45.24-.9.49-1.35.73-.32.18-.65.36-.97.54-.48.27-.96.55-1.44.83-.28.16-.56.33-.84.49-.61.37-1.22.75-1.82 1.13-.14.09-.28.17-.41.26 0 0-.01 0-.02.01.18-.43.34-.87.51-1.3.15-.4.32-.79.47-1.19.17-.47.33-.95.49-1.43.13-.4.28-.8.4-1.2.15-.49.28-.98.42-1.47.11-.41.24-.81.35-1.22.13-.5.23-1.01.35-1.51.09-.41.2-.82.28-1.24.11-.52.19-1.04.28-1.56.07-.41.16-.82.22-1.23.08-.55.14-1.11.21-1.66.05-.39.11-.78.15-1.18.06-.64.1-1.28.15-1.92.02-.32.06-.63.07-.95.05-.97.07-1.94.07-2.92 0-1.97-1.6-3.56-3.56-3.56s-3.56 1.6-3.56 3.56c0 27.5-22.38 49.88-49.88 49.88-1.97 0-3.56 1.6-3.56 3.56s1.6 3.56 3.56 3.56c.98 0 1.95-.03 2.92-.07.32-.02.64-.05.96-.07.64-.04 1.28-.08 1.92-.15.4-.04.79-.1 1.18-.15.55-.07 1.11-.13 1.65-.21.42-.06.82-.15 1.24-.22.52-.09 1.04-.17 1.56-.28.41-.08.82-.19 1.22-.28.51-.12 1.02-.22 1.52-.35.41-.1.81-.23 1.21-.34.49-.14.99-.27 1.48-.42.4-.12.8-.27 1.2-.4.48-.16.97-.32 1.44-.49.39-.14.78-.3 1.17-.46.44-.17.89-.33 1.32-.52 0 0 0 .01-.01.02-.1.15-.19.31-.28.46-.37.59-.74 1.18-1.1 1.78-.17.29-.34.58-.51.86-.28.47-.55.94-.82 1.41-.18.32-.36.65-.54.98-.25.44-.49.89-.73 1.34-.18.34-.36.69-.54 1.04-.23.44-.45.87-.67 1.32-.18.36-.35.72-.53 1.08l-.63 1.32c-.17.36-.34.73-.5 1.09-.2.45-.4.91-.6 1.36-.16.36-.31.72-.46 1.08-.2.47-.39.95-.59 1.43l-.42 1.05c-.05.12-.1.24-.14.36-.34.06-.67.13-1.01.18-.46.08-.93.15-1.39.22-.72.1-1.43.2-2.15.28-.45.05-.89.11-1.34.15-.78.08-1.57.13-2.35.18-.38.02-.77.06-1.15.08-1.17.06-2.34.09-3.51.09-1.97 0-3.56 1.6-3.56 3.56s1.6 3.56 3.56 3.56c1.22 0 2.44-.04 3.66-.09.26-.01.53-.02.79-.04 1.19-.07 2.38-.16 3.57-.28l.56-.06c.57-.06 1.15-.12 1.72-.2 0 .01 0 .03-.01.04-.33 1.12-.64 2.26-.93 3.39-.09.34-.17.69-.25 1.03-.2.82-.39 1.63-.57 2.45a109.152 109.152 0 0 0-.73 3.67c-.06.34-.13.68-.19 1.02-.2 1.16-.38 2.32-.54 3.49v.05c-2.36.18-4.72.27-7.06.27-1.97 0-3.56 1.6-3.56 3.56s1.6 3.56 3.56 3.56c2.11 0 4.24-.08 6.36-.21-.13 2.13-.21 4.25-.21 6.36s.08 4.24.21 6.36c-2.13-.13-4.25-.21-6.36-.21-1.97 0-3.56 1.6-3.56 3.56s1.6 3.56 3.56 3.56c3.28 0 6.6.17 9.88.52 2.83.3 5.65.72 8.43 1.28 4.65.92 9.21 2.2 13.65 3.81a94.092 94.092 0 0 1 26.71 15.01 92.967 92.967 0 0 1 9.31 8.58c.58.61 1.15 1.23 1.72 1.86a93.752 93.752 0 0 1 18.3 30.57c.97 2.66 1.81 5.37 2.53 8.12 1.2 4.58 2.06 9.25 2.55 13.97.34 3.28.52 6.61.52 9.88 0 1.97 1.6 3.56 3.56 3.56s3.56-1.6 3.56-3.56c0-2.11-.08-4.24-.21-6.36 2.13.13 4.25.21 6.36.21s4.24-.08 6.36-.21c-.13 2.13-.21 4.25-.21 6.36 0 1.97 1.6 3.56 3.56 3.56s3.56-1.6 3.56-3.56c0-2.34.09-4.7.27-7.06h.06c1.16-.16 2.32-.34 3.48-.54.35-.06.69-.13 1.03-.19.83-.15 1.65-.31 2.47-.48.4-.08.8-.17 1.2-.26.81-.18 1.62-.37 2.42-.57.35-.09.71-.17 1.06-.26 1.13-.29 2.26-.6 3.38-.93.02 0 .03 0 .05-.01-.07.57-.13 1.15-.2 1.72-.02.19-.05.38-.06.56-.12 1.19-.21 2.37-.28 3.57-.01.27-.03.53-.04.8-.06 1.22-.09 2.44-.09 3.66 0 1.97 1.6 3.56 3.56 3.56s3.56-1.6 3.56-3.56c0-1.17.03-2.34.09-3.5.02-.39.05-.77.08-1.15.05-.78.11-1.57.18-2.35.04-.45.1-.9.15-1.35.08-.72.17-1.43.28-2.14.07-.47.14-.93.22-1.4l.18-1.01c.12-.05.24-.1.36-.14.35-.14.7-.28 1.04-.42.48-.19.96-.39 1.43-.59.36-.15.71-.31 1.07-.46.46-.2.92-.4 1.37-.61.36-.16.72-.33 1.07-.49.45-.21.9-.42 1.34-.64.35-.17.71-.34 1.06-.52.45-.22.89-.45 1.34-.68.34-.18.68-.35 1.02-.53.45-.24.91-.49 1.36-.74.32-.18.64-.35.96-.53.48-.27.96-.56 1.44-.84.28-.16.56-.32.83-.49.62-.38 1.24-.76 1.85-1.15.13-.08.26-.16.38-.24 0 0 .02 0 .02-.01-.18.42-.34.86-.5 1.29-.16.4-.32.8-.47 1.2-.17.47-.32.94-.48 1.41-.14.41-.28.81-.41 1.23-.15.48-.27.96-.41 1.44-.12.42-.25.83-.35 1.25-.13.49-.23.98-.34 1.48-.1.42-.2.84-.29 1.27-.1.5-.18 1.01-.27 1.52-.07.42-.16.84-.23 1.27-.08.54-.14 1.09-.21 1.63-.05.4-.11.8-.15 1.21-.06.63-.1 1.28-.15 1.92-.02.32-.06.64-.07.96-.05.97-.07 1.94-.07 2.92 0 1.97 1.6 3.56 3.56 3.56s3.56-1.6 3.56-3.56c0-27.5 22.38-49.88 49.88-49.88 1.97 0 3.56-1.6 3.56-3.56s-1.6-3.56-3.56-3.56c-.98 0-1.95.03-2.92.07-.32.02-.63.05-.95.07-.64.04-1.29.08-1.92.15-.39.04-.77.1-1.15.15-.56.07-1.13.13-1.69.21-.4.06-.8.14-1.2.21-.53.09-1.07.18-1.59.29-.41.08-.82.19-1.23.28-.51.12-1.01.22-1.51.35-.41.11-.81.23-1.22.34-.49.14-.99.27-1.47.42-.4.12-.79.27-1.19.4-.48.16-.97.32-1.45.49-.39.14-.77.3-1.16.45-.44.17-.89.34-1.33.52 0 0 0-.01.01-.02.09-.15.18-.3.28-.44.38-.59.75-1.19 1.11-1.79.17-.28.33-.57.5-.85.28-.47.56-.95.83-1.43.18-.32.36-.64.54-.97.25-.45.49-.9.74-1.35.18-.34.36-.69.54-1.03.23-.44.46-.88.68-1.33.18-.35.35-.71.52-1.07.22-.44.43-.89.64-1.34.17-.36.33-.72.5-1.08.21-.46.41-.91.61-1.37.15-.36.31-.71.46-1.07.2-.48.4-.95.59-1.43.14-.35.28-.69.42-1.04.05-.12.1-.24.14-.36.34-.06.67-.13 1.01-.18.46-.08.93-.15 1.4-.22.71-.1 1.43-.19 2.15-.28.45-.05.9-.11 1.35-.15.78-.08 1.57-.13 2.35-.18.38-.02.77-.06 1.15-.08 1.17-.06 2.34-.09 3.5-.09 1.97 0 3.56-1.6 3.56-3.56s-1.6-3.56-3.56-3.56c-1.22 0-2.44.04-3.66.09a85.76 85.76 0 0 0-4.37.32l-.56.06c-.57.06-1.15.12-1.72.2 0-.01 0-.03.01-.04.33-1.12.64-2.25.93-3.39.09-.34.17-.69.26-1.04.2-.81.39-1.62.57-2.44.09-.39.17-.79.25-1.19.17-.82.33-1.65.48-2.47.06-.35.13-.69.19-1.04.2-1.16.38-2.32.54-3.48v-.06c2.36-.18 4.72-.27 7.06-.27 1.97 0 3.56-1.6 3.56-3.56s-1.6-3.56-3.56-3.56c-2.11 0-4.24.08-6.36.21.13-2.13.21-4.25.21-6.36s-.08-4.24-.21-6.36c2.13.13 4.25.21 6.36.21 1.97 0 3.56-1.6 3.56-3.56Zm-24.15 1.44c.82.17 1.64.33 2.47.48.35.06.69.13 1.04.19 1.16.2 2.31.38 3.48.54h.06a93.418 93.418 0 0 1-.25 16.94c-.4 3.78-1.02 7.52-1.87 11.21-.85 3.69-1.92 7.32-3.21 10.88a93.853 93.853 0 0 1-16.63 28.66c-10.4 12.25-23.9 21.74-39.4 27.37a93.002 93.002 0 0 1-10.88 3.21 92.3 92.3 0 0 1-11.21 1.87c-3.28.34-6.61.52-9.88.52-2.34 0-4.7-.09-7.06-.27v-.06c-.16-1.16-.34-2.32-.54-3.48-.06-.35-.13-.69-.19-1.04-.15-.82-.31-1.65-.48-2.47-.08-.4-.17-.8-.26-1.2-.18-.81-.37-1.62-.57-2.42-.09-.35-.17-.7-.26-1.05-.29-1.13-.6-2.26-.93-3.38 0-.01 0-.03-.01-.04.57.07 1.15.13 1.72.2l.56.06c1.19.12 2.38.21 3.57.28.27.01.53.03.8.04 1.22.06 2.44.09 3.66.09 43.49 0 78.87-35.38 78.87-78.87 0-1.22-.04-2.44-.09-3.66a85.76 85.76 0 0 0-.38-4.93c-.06-.57-.12-1.15-.2-1.72.01 0 .03 0 .05.01 1.12.33 2.25.64 3.38.93.35.09.7.17 1.05.26.81.2 1.62.39 2.43.57.4.09.79.17 1.19.26Zm-105.57 65.4c-.27-.48-.55-.96-.83-1.43-.17-.28-.33-.56-.49-.84-.37-.61-.75-1.22-1.13-1.82-.09-.14-.17-.28-.26-.41 0 0 0-.01-.01-.02.43.18.87.34 1.31.51.4.15.79.32 1.19.46.47.17.95.32 1.43.48.4.14.8.28 1.21.41.48.15.98.28 1.46.42.41.12.82.24 1.23.35.49.13.99.23 1.49.34.42.1.83.2 1.26.29.51.1 1.03.19 1.55.28.42.07.83.16 1.25.22.55.08 1.11.14 1.66.21.39.05.78.11 1.18.15.64.06 1.28.1 1.92.15.32.02.64.06.96.07.97.05 1.94.07 2.92.07 31.43 0 57.01-25.57 57.01-57.01 0-.98-.03-1.95-.07-2.92-.02-.32-.05-.63-.07-.95-.04-.64-.08-1.29-.15-1.92-.04-.39-.1-.78-.15-1.17-.07-.56-.13-1.11-.21-1.66-.06-.41-.15-.82-.22-1.22-.09-.52-.17-1.05-.28-1.57-.08-.41-.19-.82-.28-1.23-.12-.51-.22-1.01-.35-1.51-.11-.41-.23-.82-.35-1.23-.14-.49-.27-.98-.42-1.46-.13-.41-.27-.81-.41-1.21-.16-.48-.31-.96-.48-1.43-.15-.4-.31-.79-.46-1.18-.17-.44-.33-.88-.51-1.31 0 0 .01 0 .02.01.14.09.29.18.43.27.6.38 1.2.75 1.81 1.12.28.17.57.33.85.5.47.28.95.56 1.43.83.32.18.65.36.97.54.45.25.9.49 1.35.74.34.18.69.36 1.03.54.44.23.88.45 1.32.68.35.18.71.35 1.07.52.44.21.89.43 1.33.63.36.17.72.33 1.08.5.45.21.91.41 1.37.61.36.16.72.31 1.08.46.47.2.95.39 1.43.59l1.05.42c.12.05.24.1.36.14.06.34.13.67.18 1.01.08.46.15.93.22 1.4.1.71.19 1.43.28 2.15.05.45.11.9.15 1.35.08.78.13 1.57.18 2.35.02.38.06.77.08 1.15.06 1.17.09 2.34.09 3.5 0 39.56-32.18 71.74-71.74 71.74-1.17 0-2.34-.03-3.5-.09-.38-.02-.77-.05-1.15-.08-.78-.05-1.57-.11-2.35-.18-.45-.04-.9-.1-1.35-.15-.72-.08-1.43-.17-2.15-.28-.47-.07-.93-.14-1.4-.22l-1.01-.18c-.05-.12-.1-.24-.14-.36l-.42-1.05c-.19-.48-.39-.95-.58-1.42-.15-.36-.31-.72-.46-1.08-.2-.46-.4-.91-.6-1.36-.16-.36-.33-.72-.5-1.08-.21-.45-.42-.89-.63-1.33-.17-.36-.35-.71-.52-1.07-.22-.44-.45-.88-.68-1.32-.18-.34-.36-.69-.54-1.03-.24-.45-.49-.9-.73-1.34-.18-.33-.36-.65-.54-.97ZM57.4 132.16c-.6-.38-1.19-.75-1.8-1.11-.29-.17-.58-.34-.86-.51-.47-.28-.94-.55-1.41-.82-.33-.18-.66-.36-.98-.54-.44-.24-.89-.49-1.33-.73-.35-.18-.7-.36-1.04-.54-.44-.23-.87-.45-1.31-.67-.36-.18-.72-.35-1.08-.53l-1.32-.63c-.36-.17-.73-.34-1.09-.5-.45-.2-.9-.4-1.36-.6-.36-.16-.72-.31-1.08-.47-.47-.2-.94-.39-1.42-.58-.35-.14-.7-.29-1.06-.42-.12-.05-.24-.1-.35-.14-.06-.34-.13-.67-.18-1.01-.08-.46-.15-.93-.22-1.39-.1-.71-.19-1.43-.28-2.15-.05-.45-.11-.9-.15-1.35-.08-.78-.13-1.57-.18-2.35-.02-.38-.06-.77-.08-1.15-.06-1.17-.09-2.34-.09-3.5 0-39.56 32.18-71.74 71.74-71.74 1.17 0 2.34.03 3.5.09.38.02.77.05 1.15.08.78.05 1.57.11 2.35.18.45.04.9.1 1.35.15.72.08 1.43.17 2.14.28.47.07.94.14 1.4.22l1.01.18c.05.12.1.24.14.36.14.35.28.7.42 1.04.19.48.39.96.59 1.43.15.36.31.71.46 1.07.2.46.4.92.61 1.37.16.36.33.72.5 1.08.21.45.42.89.64 1.34.17.36.35.71.52 1.07.22.45.45.89.68 1.33.18.34.35.69.54 1.03.24.45.49.9.74 1.36.18.32.35.64.53.96.27.48.56.96.84 1.44.16.28.32.56.49.83.38.62.76 1.24 1.15 1.85.08.13.16.26.24.38 0 0 0 .02.01.02-.42-.18-.85-.33-1.28-.5-.4-.16-.8-.32-1.21-.47-.46-.17-.94-.32-1.41-.48-.41-.14-.82-.28-1.23-.41-.48-.15-.97-.28-1.45-.41-.41-.12-.82-.24-1.24-.35-.49-.13-.99-.23-1.49-.34-.42-.1-.83-.2-1.26-.29-.51-.1-1.03-.19-1.54-.28-.42-.07-.83-.16-1.25-.22-.55-.08-1.11-.14-1.66-.21-.39-.05-.78-.11-1.18-.15-.64-.06-1.28-.1-1.92-.15-.32-.02-.63-.06-.95-.07-.97-.05-1.94-.07-2.92-.07-31.43 0-57.01 25.57-57.01 57.01 0 .98.03 1.95.07 2.92.02.32.05.64.07.96.04.64.08 1.28.15 1.92.04.4.1.79.15 1.18.07.55.13 1.11.21 1.66.06.42.15.83.22 1.25.09.52.17 1.03.28 1.54.09.42.19.84.29 1.26.11.5.22 1 .34 1.49.11.41.23.82.35 1.23.14.49.27.98.42 1.46.13.41.27.81.41 1.21.16.48.31.96.48 1.43.15.4.31.79.46 1.19.17.44.33.88.51 1.31 0 0-.01 0-.02-.01-.14-.09-.29-.18-.44-.27Zm-28.58-12.35c-.34-.09-.69-.17-1.03-.25-.81-.2-1.63-.39-2.45-.57-.39-.09-.79-.17-1.18-.25-.82-.17-1.65-.33-2.48-.48-.34-.06-.69-.13-1.03-.19-1.16-.2-2.32-.38-3.48-.54h-.05a93.418 93.418 0 0 1 .25-16.94c.3-2.83.72-5.65 1.28-8.43.92-4.65 2.2-9.21 3.81-13.65a93.885 93.885 0 0 1 15.01-26.7c10.6-13.19 24.7-23.4 41.02-29.33a93.775 93.775 0 0 1 22.09-5.09c3.28-.34 6.61-.52 9.88-.52 2.34 0 4.7.09 7.06.27v.05c.16 1.17.34 2.33.54 3.49.06.34.13.68.19 1.03.15.83.31 1.66.48 2.48.08.4.17.79.25 1.18.18.82.37 1.63.57 2.44.09.34.17.69.25 1.03.29 1.14.6 2.27.93 3.39 0 .01 0 .03.01.04-.57-.07-1.14-.13-1.71-.2-.19-.02-.38-.05-.57-.07-1.19-.12-2.37-.21-3.56-.28-.27-.01-.53-.03-.8-.04-1.22-.06-2.44-.09-3.66-.09-43.49 0-78.87 35.38-78.87 78.87 0 1.22.04 2.44.09 3.66a83.965 83.965 0 0 0 .32 4.36c.02.19.04.38.07.57.06.57.12 1.15.2 1.72-.01 0-.03 0-.04-.01-1.12-.33-2.26-.64-3.39-.93Zm81.63 40.52c-27.5 0-49.88-22.38-49.88-49.88s22.38-49.88 49.88-49.88 49.88 22.38 49.88 49.88-22.38 49.88-49.88 49.88Z"/>
    <path
      d="M217.34 75.31c-39.56 0-71.74-32.18-71.74-71.74 0-1.97-1.6-3.56-3.56-3.56s-3.56 1.6-3.56 3.56c0 43.49 35.38 78.87 78.87 78.87 1.97 0 3.56-1.6 3.56-3.56s-1.6-3.56-3.56-3.56Z"/>
    <path
      d="M217.34 53.44c-27.5 0-49.88-22.38-49.88-49.88 0-1.97-1.6-3.56-3.56-3.56s-3.56 1.6-3.56 3.56c0 31.43 25.57 57.01 57.01 57.01 1.97 0 3.56-1.6 3.56-3.56s-1.6-3.56-3.56-3.56Z"/>
    <path
      d="M217.34 31.58c-15.45 0-28.02-12.57-28.02-28.02 0-1.97-1.6-3.56-3.56-3.56s-3.56 1.6-3.56 3.56c0 19.38 15.77 35.14 35.14 35.14 1.97 0 3.56-1.6 3.56-3.56s-1.6-3.56-3.56-3.56Zm0-14.74c1.97 0 3.56-1.6 3.56-3.56s-1.6-3.56-3.56-3.56c-3.39 0-6.15-2.76-6.15-6.15 0-1.97-1.6-3.56-3.56-3.56s-3.56 1.6-3.56 3.56c0 7.32 5.96 13.28 13.28 13.28ZM3.56 38.71c19.38 0 35.14-15.77 35.14-35.14 0-1.97-1.6-3.56-3.56-3.56s-3.56 1.6-3.56 3.56c0 15.45-12.57 28.02-28.02 28.02-1.97 0-3.56 1.6-3.56 3.56s1.6 3.56 3.56 3.56Zm0-21.87c7.32 0 13.28-5.96 13.28-13.28 0-1.97-1.6-3.56-3.56-3.56S9.72 1.6 9.72 3.56c0 3.39-2.76 6.15-6.15 6.15-1.97 0-3.56 1.6-3.56 3.56s1.6 3.56 3.56 3.56Z"/>
  </g>
</svg>
