<svg xmlns="http://www.w3.org/2000/svg" id="Layer_1" viewBox="0 0 162.82 34.76">
    <defs>
        <style>
            .cls-2{fill:#ddd}
        </style>
    </defs>
    <path d="M50.15 29c-1.04 0-1.93-.17-2.68-.51-.75-.34-1.36-.81-1.83-1.4-.47-.59-.82-1.3-1.04-2.12s-.33-1.7-.33-2.64c0-1.48.26-2.9.78-4.28a11.17 11.17 0 0 1 2.22-3.64c.96-1.05 2.13-1.88 3.53-2.51 1.39-.63 2.97-.94 4.73-.94.22 0 .49.01.79.03.31.02.65.08 1.03.16l1.8-7.6 4.16-.66-4.53 18.74c-.11.51-.19 1.02-.25 1.54s-.08 1.01-.08 1.47c0 .6.05 1.19.17 1.78.11.6.29 1.21.53 1.85l-3.57.53c-.24-.46-.45-1.02-.63-1.69-.55.49-1.22.92-2.02 1.31-.79.39-1.72.58-2.78.58Zm6.37-14.61c-.42-.09-.92-.13-1.52-.13-1.01 0-1.94.21-2.77.64s-1.55 1-2.15 1.72c-.59.72-1.05 1.54-1.37 2.46s-.48 1.88-.48 2.88c0 .51.05.98.15 1.42.1.44.26.83.48 1.16.22.33.51.6.88.79.36.2.81.3 1.34.3.7 0 1.33-.14 1.87-.43a6.2 6.2 0 0 0 1.54-1.19c.02-.46.07-.95.15-1.45.08-.51.17-1 .28-1.49l1.61-6.68ZM77 21.83c-.07.24-.13.64-.2 1.19s-.1 1.07-.1 1.55c0 .64.06 1.26.17 1.87s.29 1.22.53 1.83l-3.57.53c-.26-.53-.47-1.09-.63-1.69-.55.49-1.23.92-2.03 1.31-.81.39-1.71.58-2.73.58s-1.92-.17-2.66-.51a4.71 4.71 0 0 1-1.8-1.42c-.46-.61-.8-1.32-1.02-2.13-.22-.82-.33-1.7-.33-2.64 0-1.61.29-3.11.86-4.5.57-1.39 1.37-2.59 2.4-3.6 1.02-1.01 2.24-1.81 3.65-2.4s2.95-.88 4.63-.88c.86 0 1.72.07 2.59.22.87.14 1.75.41 2.63.81l-2.38 9.88Zm-2.17-7.47a6.8 6.8 0 0 0-1.42-.13c-.99 0-1.91.22-2.75.64-.84.43-1.56 1-2.17 1.72s-1.08 1.54-1.41 2.46c-.33.93-.5 1.9-.5 2.91 0 .51.04.98.13 1.42.09.44.24.83.45 1.16.21.33.49.6.84.79.35.2.8.3 1.36.3.71 0 1.33-.15 1.87-.45.54-.3 1.04-.7 1.5-1.21.02-.57.07-1.11.15-1.62s.18-1.01.31-1.52l1.63-6.48Z" class="cls-2"/>
    <path d="M96.91 11.29c-.44 1.26-.93 2.56-1.46 3.92s-1.12 2.72-1.77 4.08a65.81 65.81 0 0 1-2.11 4.08 52.78 52.78 0 0 1-2.42 3.95c-.64.97-1.3 1.9-1.99 2.79-.68.89-1.43 1.68-2.23 2.36-.81.68-1.69 1.23-2.66 1.65-.97.42-2.07.63-3.31.63-.68 0-1.3-.08-1.84-.23-.54-.15-1-.33-1.37-.53l1.29-3.21a4.631 4.631 0 0 0 2.31.6c1.04 0 1.95-.27 2.73-.81s1.49-1.27 2.13-2.2c-.71-2.45-1.3-5.1-1.79-7.97-.48-2.87-.81-5.91-.96-9.12h4.03c.02.93.07 1.95.15 3.07s.18 2.28.3 3.45c.12 1.18.27 2.34.45 3.49s.38 2.2.6 3.17c.66-1.06 1.28-2.17 1.86-3.34.57-1.17 1.11-2.33 1.59-3.49.49-1.16.91-2.28 1.28-3.37s.68-2.09.94-2.99h4.23Zm6.82 0h5.26l-.72 3h-5.24l-2.26 9.39c-.26 1.08-.51 2.04-.74 2.88s-.5 1.61-.8 2.31c-.3.7-.66 1.35-1.07 1.96-.41.61-.93 1.22-1.55 1.82l-3.16-.48c.38-.48.73-.97 1.07-1.46.33-.49.63-1.01.9-1.56s.52-1.15.75-1.8c.23-.65.44-1.37.62-2.17l3.57-15c.24-1.02.56-1.93.97-2.74.41-.81.92-1.49 1.53-2.04s1.34-.97 2.19-1.26c.85-.29 1.83-.44 2.95-.44.7 0 1.33.07 1.89.2.56.13 1.01.28 1.35.43l-1.35 2.85c-.18-.06-.44-.14-.78-.24-.34-.1-.78-.15-1.32-.15-.6 0-1.11.09-1.53.26-.42.17-.78.4-1.08.7-.3.3-.55.67-.74 1.1-.19.43-.34.9-.46 1.39l-.28 1.05Zm11.36 17.58c-1.04-.02-1.91-.15-2.63-.4-.72-.24-1.29-.57-1.72-.99a3.62 3.62 0 0 1-.93-1.49c-.19-.57-.28-1.2-.28-1.88s.08-1.45.25-2.23c.17-.78.35-1.56.55-2.33l3.84-16 4.16-.66c-.68 2.89-1.37 5.76-2.05 8.61-.68 2.85-1.38 5.72-2.08 8.61-.11.46-.22.92-.33 1.37-.11.45-.19.9-.23 1.34-.04.38-.05.72-.02 1.04.03.32.13.6.3.83s.41.42.74.58c.33.15.76.25 1.29.3l-.86 3.31Zm9.61.13c-2.05 0-3.61-.61-4.69-1.82-1.08-1.21-1.62-2.81-1.62-4.79 0-1.28.2-2.6.59-3.97.4-1.37 1-2.61 1.82-3.74.82-1.12 1.84-2.05 3.07-2.78 1.23-.73 2.69-1.09 4.36-1.09 2.05 0 3.61.6 4.69 1.8 1.08 1.2 1.62 2.79 1.62 4.78 0 1.3-.19 2.63-.58 4a12.17 12.17 0 0 1-1.78 3.74c-.81 1.12-1.83 2.05-3.07 2.78-1.25.73-2.72 1.09-4.41 1.09Zm3.04-14.81c-.86 0-1.63.25-2.3.74-.67.5-1.23 1.13-1.69 1.9-.45.77-.8 1.61-1.04 2.53-.24.91-.36 1.8-.36 2.66 0 1.1.21 1.97.63 2.61.42.64 1.16.96 2.21.96.86 0 1.62-.25 2.3-.74.67-.5 1.23-1.12 1.69-1.88.45-.76.8-1.6 1.04-2.53.24-.93.36-1.81.36-2.64 0-1.1-.21-1.98-.63-2.63-.42-.65-1.16-.98-2.21-.98Zm21.41 3.34c-.41.93-.88 1.89-1.4 2.88s-1.06 1.95-1.62 2.89c-.56.94-1.13 1.84-1.69 2.7-.56.86-1.08 1.62-1.56 2.29h-3.24c-.2-1-.39-2.13-.58-3.41-.19-1.28-.36-2.64-.52-4.1-.16-1.45-.29-2.98-.42-4.58s-.21-3.24-.25-4.91h3.9c0 .91.01 1.89.03 2.94.02 1.05.06 2.12.12 3.22.06 1.09.12 2.17.2 3.23.08 1.06.18 2.06.32 2.99.61-.93 1.21-1.92 1.81-2.97.6-1.05 1.17-2.11 1.71-3.19s1.05-2.14 1.51-3.2c.47-1.06.87-2.07 1.22-3.02h3.38c0 .89.01 1.83.03 2.83.02 1 .06 2.03.11 3.09s.12 2.14.19 3.23c.07 1.09.18 2.17.3 3.23.56-.82 1.14-1.77 1.73-2.83.59-1.06 1.15-2.15 1.69-3.27s1.04-2.22 1.48-3.32c.45-1.09.81-2.09 1.09-2.97h4.1c-.46 1.3-1.02 2.68-1.68 4.14-.66 1.46-1.41 2.94-2.24 4.44-.83 1.5-1.71 2.96-2.66 4.4a45.7 45.7 0 0 1-2.95 4.01h-3.22c-.24-1.82-.44-3.61-.6-5.38s-.27-3.56-.31-5.38Z" class="cls-2"/>
    <path d="M13.91 33.15c2.57.85 5.4 1.06 8.25.45 8.36-1.78 13.76-9.81 12.04-17.9-.14-.66-.34-1.3-.57-1.92-.05-.66-.12-1.32-.27-1.99C31.64 3.71 23.44-1.43 15.08.35c-2.27.48-4.31 1.44-6.06 2.72C2.63 6.01-1.16 12.9.32 19.85c.57 2.67 1.85 5 3.6 6.89 2.29 3.36 5.9 5.69 9.99 6.41ZM12.56 2.93c.33-.07.66-.11.99-.16-2.69.75-5.05 2.15-6.9 3.99a14.36 14.36 0 0 1 2.89-2.83c.95-.43 1.96-.77 3.02-1Zm7.22 29.13c-1.92.41-3.84.42-5.65.11-.71-.24-1.4-.52-2.06-.87.15.03.29.07.44.1 2.42.8 5.07 1.02 7.76.53-.16.04-.32.09-.48.13ZM14.95 4.52C9.05 6.17 4.8 10.97 3.8 16.59c-.13-1.25-.07-2.49.14-3.69.29-.85.67-1.66 1.12-2.43 2.05-2.84 5.15-4.99 8.9-5.79.33-.07.66-.11.99-.16Zm12.7 4.36c.94 1.4 1.65 2.99 2.02 4.73 1.16 5.47-1.18 10.9-5.52 14.11-.95.43-1.96.77-3.02 1C14 30.24 7.01 26.38 4.61 19.97 4.19 13.13 9 6.77 16.13 5.25c1.92-.41 3.84-.42 5.65-.11 2.25.76 4.27 2.04 5.87 3.75Zm-8.08 22.16c1.88-.53 3.6-1.37 5.1-2.46 1.71-.79 3.24-1.85 4.53-3.13a14.666 14.666 0 0 1-8.64 5.43c-.33.07-.66.11-.99.16Zm11.34-9.5a14.71 14.71 0 0 1-2.75 3.5c2.16-3.04 3.19-6.81 2.64-10.65.09.32.19.64.26.97.45 2.11.36 4.21-.14 6.19ZM3.3 19.22c.09.32.19.64.31.96.02.33.06.66.11 1-.09-.32-.19-.64-.26-.97s-.11-.66-.16-.99Zm1.94 4.15c3.11 4.59 8.72 7.25 14.6 6.56a14.962 14.962 0 0 1-7.09.49c-2.25-.76-4.27-2.04-5.87-3.75a13.25 13.25 0 0 1-1.63-3.31Zm26.59-9.2c.04.16.05.33.08.49-.61-2.47-1.83-4.64-3.47-6.4-.05-.07-.09-.14-.14-.21.54.43 1.04.9 1.51 1.4.94 1.4 1.65 2.99 2.02 4.73Zm-9.39-9.92c-.15-.03-.29-.07-.44-.1-2.42-.8-5.07-1.02-7.76-.53.16-.04.32-.09.48-.13 1.92-.41 3.84-.42 5.65-.11.71.24 1.4.52 2.06.87ZM2.69 21.39c-.04-.16-.05-.33-.08-.49.61 2.46 1.83 4.64 3.47 6.4.05.07.09.14.14.21-.54-.43-1.04-.9-1.51-1.4-.94-1.4-1.65-2.99-2.02-4.73Zm19.26 11.24c-.33.07-.66.11-.99.16 4.07-1.13 7.35-3.77 9.32-7.14 1.3-1.81 2.2-3.89 2.59-6.1.24-.71.43-1.44.57-2.19.72 7.04-4.18 13.7-11.49 15.26ZM32 10.59c-.42-.63-.89-1.22-1.41-1.77-2.29-3.36-5.9-5.69-9.99-6.41-2.12-.7-4.41-.97-6.76-.7.47-.15.95-.28 1.44-.38 7.32-1.56 14.5 2.54 16.71 9.26ZM5.53 6.61a15.159 15.159 0 0 0-2.29 4.86c-1.5 2.73-2.14 5.91-1.68 9.15-.09-.32-.19-.64-.26-.97-1.04-4.9.73-9.76 4.23-13.04Z" style="fill:#be185d"/>
</svg>
